<svg width="56" height="57" viewBox="0 0 56 57" fill="none" xmlns="http://www.w3.org/2000/svg">
<rect x="21.7624" y="3.76141" width="4.03007" height="10.4782" rx="2.01503" fill="white"/>
<rect x="30.3598" width="4.03007" height="14.2396" rx="2.01503" fill="white"/>
<path fill-rule="evenodd" clip-rule="evenodd" d="M25.2551 19.8817C25.2551 18.843 24.4131 18.001 23.3744 18.001H23.0858C16.5204 18.001 11.1012 23.1352 10.7468 29.6911C11.1016 35.7984 16.1577 40.5693 22.2753 40.5693H33.7478C39.7073 40.5693 44.6543 35.9539 45.0792 30.0097C45.1175 29.4737 45.1172 28.935 45.0784 28.3991C44.6534 22.5386 39.7748 18.001 33.8989 18.001H32.5092C31.4705 18.001 30.6285 18.843 30.6285 19.8817V19.8817C30.6285 20.9203 31.4705 21.7624 32.5092 21.7624H34.1212C38.276 21.7624 41.644 25.1304 41.644 29.2852C41.644 33.4399 38.2759 36.8079 34.1212 36.8079H22.031C17.8763 36.8079 14.5082 33.4399 14.5082 29.2852C14.5082 25.1304 17.8763 21.7624 22.031 21.7624H23.3744C24.4131 21.7624 25.2551 20.9203 25.2551 19.8817V19.8817Z" fill="white"/>
<circle cx="21.4937" cy="28.7478" r="2.68671" fill="white"/>
<circle cx="34.9272" cy="28.7478" r="2.68671" fill="white"/>
<path d="M25.2551 31.4609C25.2551 31.0012 25.6278 30.6285 26.0875 30.6285H29.796C30.2558 30.6285 30.6285 31.0012 30.6285 31.4609V31.4609C30.6285 32.6103 29.6967 33.5421 28.5473 33.5421H27.3362C26.1868 33.5421 25.2551 32.6103 25.2551 31.4609V31.4609Z" fill="white"/>
<path fill-rule="evenodd" clip-rule="evenodd" d="M3.61053 22.3544C5.755 16.7062 10.6501 12.4426 16.6283 11.1519C17.5945 10.9433 18.4531 11.7252 18.4413 12.7136C18.4309 13.5819 17.7443 14.2817 16.8885 14.4295C10.7703 15.4861 6.11639 20.8193 6.11639 27.2394V31.3305C6.11639 38.5102 11.9367 44.3305 19.1164 44.3305H23.1057C24.1444 44.3305 24.9865 45.1726 24.9865 46.2112C24.9865 46.2807 24.9827 46.3493 24.9754 46.4168C24.9827 46.4816 24.9864 46.5476 24.9864 46.6144V54.4059C24.9864 55.3703 24.2045 56.1522 23.2401 56.1522C22.2756 56.1522 21.4937 55.3703 21.4937 54.4059V48.0919H20.3796C12.0761 48.0919 5.03315 42.4547 2.98202 34.7218C1.25198 34.1657 0 32.5433 0 30.6285V26.5984C0 24.4585 1.56355 22.6838 3.61053 22.3544ZM30.9083 46.4165C30.901 46.3491 30.8972 46.2806 30.8972 46.2112C30.8972 45.1726 31.7392 44.3305 32.7779 44.3305H36.6411C43.8208 44.3305 49.6411 38.5102 49.6411 31.3305V27.2394C49.6411 20.6874 44.7941 15.2675 38.4901 14.3699C37.5981 14.2428 36.8685 13.5266 36.8549 12.6256C36.84 11.6438 37.6741 10.8543 38.6408 11.0268C44.9017 12.1435 50.0745 16.5026 52.2957 22.3582C54.3316 22.697 55.8836 24.4664 55.8836 26.5984V30.6285C55.8836 32.566 54.6018 34.2041 52.84 34.7411C50.7802 42.4723 43.7359 48.0919 35.4478 48.0919H34.3899V54.4059C34.3899 55.3703 33.608 56.1522 32.6436 56.1522C31.6791 56.1522 30.8972 55.3703 30.8972 54.4059V46.6144C30.8972 46.5475 30.901 46.4814 30.9083 46.4165Z" fill="white"/>
</svg>
